<svg width="800" height="600" xmlns="http://www.w3.org/2000/svg">
 <!-- Created with Method Draw - http://github.com/duopixel/Method-Draw/ -->

 <g>
  <title>background</title>
  <rect fill="#fff" id="canvas_background" height="602" width="802" y="-1" x="-1"/>
  <g display="none" overflow="visible" y="0" x="0" height="100%" width="100%" id="canvasGrid">
   <rect fill="url(#gridpattern)" stroke-width="0" y="0" x="0" height="100%" width="100%"/>
  </g>
 </g>
 <g>
  <title>Layer 1</title>
  <g id="svg_15">
   <polygon id="svg_5" fill="#e9d5c6" points="420.751953125,307.32421875 420.751953125,330.517578125 423.193359375,332.958984375 423.193359375,335.400390625 417.08984375,335.400390625 413.427734375,314.6484375 413.427734375,307.32421875 420.751953125,307.32421875 "/>
   <polygon id="svg_6" fill="#e9d5c6" points="381.689453125,319.53125 378.02734375,324.4140625 378.02734375,330.517578125 379.248046875,332.958984375 379.248046875,335.400390625 373.14453125,335.400390625 371.923828125,321.97265625 378.02734375,308.4222412109375 384.130859375,308.544921875 381.689453125,319.53125 "/>
   <path id="svg_7" fill="#f2e7df" d="m410.98633,276.80664l0,14.64844a4.88281,4.88281 0 0 1 -4.88281,4.88281l-15.99184,0a12.08433,12.08433 0 0 0 -12.08433,12.08433l0,0.00002a12.08433,12.08433 0 0 0 3.53942,8.54492l0.12269,0.12268l0,7.32422l3.66211,10.98633l6.10352,0l0,-2.44141l-2.44141,-2.44141l-1.2207,-6.10352l4.88281,-9.76563l9.76563,0l1.2207,10.98633l-2.44141,6.10352l2.44141,2.44141l6.10352,-7.32422l2.37717,-11.88579l1.28523,-0.32131a12.89215,12.89215 0 0 0 9.76534,-12.50722l0,-25.3345l-12.20703,0z"/>
   <path id="svg_8" fill="#ffceb6" d="m423.19336,269.48242l0,12.20703a6.10982,6.10982 0 0 1 -4.88281,5.98145a6.16417,6.16417 0 0 1 -2.44141,0a6.10599,6.10599 0 0 1 -4.88281,-5.98145l0,-12.20703l12.20703,0z"/>
   <rect transform="matrix(0.152587890625,0,0,0.152587890625,0,0) " id="svg_9" fill="#f2e7df" rx="27.99997" height="56" width="96" y="1734.08" x="2685.44003"/>
   <path id="svg_10" fill="#ffbfa1" d="m410.98633,271.92383l-4.88281,-3.66211l0,3.66211a4.88281,4.88281 0 0 0 4.88281,4.88281l0,0l0,-4.88281z"/>
   <path id="svg_11" fill="#ffbfa1" d="m428.07616,271.92383a4.8828,4.8828 0 0 1 -4.8828,4.88281l0,0l0,-4.88281l4.8828,-3.66211"/>
   <path id="svg_12" d="m414.64844,278.02734l0,0a1.2207,1.2207 0 0 0 0,-2.44141l0,0a1.2207,1.2207 0 0 0 0,2.44141z"/>
   <path id="svg_13" d="m419.53125,278.02734l0,0a1.2207,1.2207 0 0 0 0,-2.44141l0,0a1.2207,1.2207 0 0 0 0,2.44141z"/>
   <path id="svg_14" d="m424.41406,302.14085l0,-24.23633a6.11389,6.11389 0 0 0 4.88281,-5.98069l0,-3.66211a1.22075,1.22075 0 0 0 -1.95309,-0.97662l-1.71743,1.28809a5.49985,5.49985 0 0 0 -5.48474,-5.19428l-6.10352,0a5.49985,5.49985 0 0 0 -5.48474,5.19428l-1.71743,-1.28809a1.22075,1.22075 0 0 0 -1.95309,0.97662l0,3.66211a6.11389,6.11389 0 0 0 4.88281,5.98069l0,13.55056a3.66631,3.66631 0 0 1 -3.66211,3.66211l-15.99185,0a13.32023,13.32023 0 0 0 -13.3016,13.03524l-5.99928,13.31896a1.22149,1.22149 0 0 0 -0.10267,0.61184l1.2207,13.42773a1.22072,1.22072 0 0 0 1.21571,1.11014l6.10352,0a1.22072,1.22072 0 0 0 1.2207,-1.2207l0,-2.44141a1.2206,1.2206 0 0 0 -0.1289,-0.54598l-1.09181,-2.18362l0,-5.40838l1.2207,-1.62766l0,1.2207a1.22101,1.22101 0 0 0 0.06266,0.38609l3.66211,10.98633a1.22065,1.22065 0 0 0 1.15804,0.83461l6.10352,0a1.22072,1.22072 0 0 0 1.2207,-1.2207l0,-2.44141a1.22082,1.22082 0 0 0 -0.35755,-0.86322l-2.18004,-2.18004l-1.0661,-5.33029l4.35814,-8.71629l7.91862,0l1.06625,9.59635l-2.32778,5.8195a1.2207,1.2207 0 0 0 0.27023,1.31652l2.44141,2.44141a1.22104,1.22104 0 0 0 0.86307,0.35748c0.01848,0 0.03688,-0.00045 0.05536,-0.00119a1.22055,1.22055 0 0 0 0.88245,-0.4381l6.10352,-7.32422a1.22061,1.22061 0 0 0 0.25928,-0.54195l1.8179,-9.08952l3.10715,17.60717a1.2208,1.2208 0 0 0 1.20216,1.00851l6.10352,0a1.22072,1.22072 0 0 0 1.2207,-1.2207l0,-2.44141a1.22082,1.22082 0 0 0 -0.35755,-0.86322l-2.08385,-2.08378l0,-19.93217a14.08589,14.08589 0 0 0 2.44141,-7.93897zm2.44141,-30.21702a3.66792,3.66792 0 0 1 -2.44141,3.45211l0,-2.84173l2.44141,-1.83109l0,1.2207zm-12.81738,-6.10352l6.10352,0a3.05176,3.05176 0 0 1 0,6.10352l-6.10352,0a3.05176,3.05176 0 0 1 0,-6.10352zm-6.71387,6.10352l0,-1.2207l2.44141,1.83109l0,2.84173a3.66792,3.66792 0 0 1 -2.44141,-3.45211zm4.88281,2.12643a5.46706,5.46706 0 0 0 1.83105,0.31497l6.10352,0a5.46706,5.46706 0 0 0 1.83105,-0.31497l0,7.63919a4.89155,4.89155 0 0 1 -3.66211,4.72829l0,-3.50758a1.2207,1.2207 0 0 0 0,-2.44141l-2.44141,0a1.2207,1.2207 0 0 0 0,2.44141l0,3.50758a4.89155,4.89155 0 0 1 -3.66211,-4.72829l0,-7.63919zm-35.15623,49.63141a1.22046,1.22046 0 0 0 -0.24416,0.73239l0,6.10352a1.2206,1.2206 0 0 0 0.1289,0.54598l1.09181,2.18362l0,0.93251l-3.76806,0l-1.09076,-11.99812l4.31081,-9.57034a13.22891,13.22891 0 0 0 2.98941,4.9784l0,1.53478l-3.41795,4.55726zm31.57861,2.6305l-5.04933,6.05911l-0.927,-0.927l2.14241,-5.35622a1.22044,1.22044 0 0 0 0.07987,-0.58815l-1.2207,-10.98633a1.22079,1.22079 0 0 0 -1.21325,-1.08585l-14.64844,0l0,2.44141l2.90766,0l-3.99947,7.99894a1.22104,1.22104 0 0 0 -0.1052,0.78544l1.2207,6.10352a1.22083,1.22083 0 0 0 0.33386,0.62376l2.08385,2.08378l0,0.71511l-4.00297,0l-3.32124,-9.96366l0,-7.12618a1.22023,1.22023 0 0 0 -0.35778,-0.86337l-0.12249,-0.12249a10.86367,10.86367 0 0 1 7.68177,-18.54539l15.99185,0a6.11046,6.11046 0 0 0 6.10352,-6.10352l0,-4.31232a7.30717,7.30717 0 0 0 9.76563,0l0,14.99809a11.65271,11.65271 0 0 1 -8.25072,11.15754l0.90281,-4.51401l-2.39402,-0.47892l-3.60131,18.00671zm13.34324,7.86752l-3.85866,0l-3.29453,-18.66922a14.07446,14.07446 0 0 0 4.71178,-2.68906l0,17.69617a1.22082,1.22082 0 0 0 0.35755,0.86322l2.08385,2.08378l0,0.71511z"/>
  </g>
  <path stroke="#000" id="svg_19" d="m432.07476,324.7021l3.5731,-1.66674c-0.07024,-0.61755 -0.206,-1.21661 -0.37582,-1.80551l-3.96921,-0.48476c-0.34355,-0.72991 -0.79722,-1.40688 -1.33049,-2.02831l1.51301,-3.2819c-0.4975,-0.42792 -1.03479,-0.81807 -1.60029,-1.17705l-3.37037,1.86613c-0.79035,-0.36657 -1.64188,-0.64499 -2.53579,-0.82381l-1.218,-3.32799c-0.34543,-0.023 -0.69077,-0.04731 -1.04305,-0.04731s-0.69664,0.02375 -1.04311,0.04731l-1.20593,3.29851c-0.91787,0.17308 -1.78821,0.45474 -2.59888,0.82583l-3.31788,-1.83868c-0.56479,0.35899 -1.10205,0.74913 -1.59952,1.17705l1.47138,3.19124c-0.57347,0.64823 -1.05359,1.36346 -1.41421,2.13429l-3.84391,0.46887c-0.1691,0.58807 -0.30557,1.18649 -0.37508,1.80543l3.44999,1.60989c0.03908,0.84745 0.19839,1.66878 0.48049,2.4422l-2.60249,2.53793c0.30273,0.5538 0.63979,1.09086 1.0297,1.59474l3.83158,-0.72547c0.62821,0.60285 1.34396,1.13104 2.13364,1.56784l-0.14522,3.45756c0.62927,0.25031 1.28309,0.4598 1.95688,0.62725l2.42402,-2.74807c0.43009,0.04843 0.86563,0.08104 1.30985,0.08104c0.48123,0 0.95186,-0.03834 1.4149,-0.09445l2.43664,2.76331c0.67484,-0.16726 1.32768,-0.37674 1.95688,-0.62706l-0.14803,-3.51965c0.75267,-0.42977 1.43517,-0.94392 2.03687,-1.52442l3.93123,0.74397c0.38992,-0.5038 0.72701,-1.04029 1.02964,-1.59456l-2.68679,-2.62101c0.2581,-0.73259 0.40227,-1.50594 0.44424,-2.30366l0,0zm-5.93876,4.00366l-1.69408,0.97266l-1.04196,-1.41194c-0.54205,0.18389 -1.12562,0.2957 -1.74081,0.2957c-2.68677,0 -4.86415,-1.92113 -4.86415,-4.29041c0,-2.36937 2.17738,-4.28976 4.86415,-4.28976c2.68607,0 4.86425,1.92039 4.86425,4.28976c0,1.184 -0.54383,2.25432 -1.42289,3.03089l1.03548,1.4031z" stroke-opacity="null" stroke-width="1.5" fill="#f9dd8f"/>
 </g>
</svg>