<?xml version="1.0"?>
<svg xmlns="http://www.w3.org/2000/svg" id="filled_outline" data-name="filled outline" viewBox="0 0 512 512" width="512" height="512"><polygon points="392 304 392 456 408 472 408 488 368 488 344 352 344 304 392 304" style="fill:#e9d5c6"/><polygon points="136 384 112 416 112 456 120 472 120 488 80 488 72 400 112 311.196 152 312 136 384" style="fill:#e9d5c6"/><path d="M328,104v96a32,32,0,0,1-32,32H191.19588A79.19588,79.19588,0,0,0,112,311.19588v.00011a79.19588,79.19588,0,0,0,23.19594,56L136,368v48l24,72h40l0-16-16-16-8-40,32-64h64l8,72-16,40,16,16,40-48,15.579-77.89474,8.42288-2.10572A84.49,84.49,0,0,0,408,270.0322V104Z" style="fill:#f2e7df"/><path d="M408,56v80a40.0413,40.0413,0,0,1-32,39.2,40.39753,40.39753,0,0,1-16,0A40.01621,40.01621,0,0,1,328,136V56Z" style="fill:#ffceb6"/><rect x="320.00003" y="24" width="96" height="56" rx="27.99997" style="fill:#f2e7df"/><path d="M328,72,296,48V72a32,32,0,0,0,32,32h0Z" style="fill:#ffbfa1"/><path d="M439.99994,72A31.99994,31.99994,0,0,1,408,104h0V72l31.99994-24" style="fill:#ffbfa1"/><path d="M352,112h0a8,8,0,0,0,0-16h0a8,8,0,0,0,0,16Z"/><path d="M384,112h0a8,8,0,0,0,0-16h0a8,8,0,0,0,0,16Z"/><path d="M416,270.03027V111.19507A40.068,40.068,0,0,0,448,72V48a8.00031,8.00031,0,0,0-12.7998-6.40039l-11.25538,8.44165A36.04382,36.04382,0,0,0,388,16H348a36.04382,36.04382,0,0,0-35.94482,34.04126L300.7998,41.59961A8.00031,8.00031,0,0,0,288,48V72a40.068,40.068,0,0,0,32,39.19507V200a24.0275,24.0275,0,0,1-24,24H191.1958a87.29546,87.29546,0,0,0-87.17334,85.42773L64.70557,396.71484a8.00514,8.00514,0,0,0-.67286,4.00977l8,88A8.00014,8.00014,0,0,0,80,496h40a8.00008,8.00008,0,0,0,8-8V472a7.99934,7.99934,0,0,0-.84473-3.57812L120,454.11133V418.667L128,408v8a8.002,8.002,0,0,0,.41064,2.53027l24,72A7.99967,7.99967,0,0,0,160,496h40a8.00008,8.00008,0,0,0,8-8V472a8.00076,8.00076,0,0,0-2.34326-5.65723l-14.28711-14.28711-6.98682-34.93261L212.94434,360h51.8955l6.9878,62.89062L256.57227,461.0293a8,8,0,0,0,1.771,8.62793l16,16A8.0022,8.0022,0,0,0,279.99951,488c.1211,0,.2417-.00293.36279-.00781a7.999,7.999,0,0,0,5.78321-2.8711l40-48a7.99939,7.99939,0,0,0,1.69922-3.55175l11.91381-59.5691,20.363,115.39038A8.00063,8.00063,0,0,0,368,496h40a8.00008,8.00008,0,0,0,8-8V472a8.00076,8.00076,0,0,0-2.34326-5.65723L400,452.68652V322.05908A92.31327,92.31327,0,0,0,416,270.03027ZM432,72a24.03808,24.03808,0,0,1-16,22.62378V76.00024L432,64ZM348,32h40a20,20,0,0,1,0,40H348a20,20,0,0,1,0-40ZM304,72V64l16,12.00024V94.62378A24.03808,24.03808,0,0,1,304,72Zm32,13.93579A35.82892,35.82892,0,0,0,348,88h40a35.82892,35.82892,0,0,0,12-2.06421V136a32.05723,32.05723,0,0,1-24,30.9873V144a8,8,0,0,0,0-16H360a8,8,0,0,0,0,16v22.9873A32.05723,32.05723,0,0,1,336,136ZM105.6001,411.2002A7.9984,7.9984,0,0,0,104,416v40a7.99934,7.99934,0,0,0,.84473,3.57812L112,473.88867V480H87.30566l-7.14843-78.63086,28.25134-62.72021A86.697,86.697,0,0,0,128,371.27539v10.05835Zm206.95361,17.23925-33.09131,39.709-6.07519-6.0752,14.04052-35.10254a7.99827,7.99827,0,0,0,.52344-3.85449l-8-72A8.00054,8.00054,0,0,0,272,344H176v16h19.05566l-26.21093,52.42188a8.00221,8.00221,0,0,0-.68946,5.14746l8,40a8.00085,8.00085,0,0,0,2.188,4.08789L192,475.31348V480H165.76611L144,414.70215V368a7.99689,7.99689,0,0,0-2.34473-5.6582l-.80273-.80274A71.19612,71.19612,0,0,1,191.1958,240H296a40.04552,40.04552,0,0,0,40-40V171.73877a47.88825,47.88825,0,0,0,64,0v98.2915a76.36718,76.36718,0,0,1-54.0719,73.12207l5.91663-29.583-15.68946-3.13868ZM400,480H374.71191L353.12085,357.64941A92.23838,92.23838,0,0,0,384,340.02637V456a8.00076,8.00076,0,0,0,2.34326,5.65723L400,475.31348Z"/></svg>
