<svg height="512pt" viewBox="0 -14 512.00003 512" width="512pt" xmlns="http://www.w3.org/2000/svg"><path d="m292.308594 378.558594h-72.621094s-.582031 50.535156-25.492188 81.972656c-5.273437 6.660156-.378906 16.484375 8.117188 16.484375h107.371094c8.496094 0 13.394531-9.824219 8.117187-16.484375-24.90625-31.4375-25.492187-81.972656-25.492187-81.972656zm0 0" fill="#bddff4"/><path d="m309.691406 477.015625h-26.175781c8.503906 0 13.394531-9.824219 8.121094-16.488281-24.910157-31.429688-25.492188-81.96875-25.492188-81.96875h26.164063s.585937 50.539062 25.492187 81.96875c5.273438 6.664062.382813 16.488281-8.109375 16.488281zm0 0" fill="#adc9e2"/><path d="m504.5 65.230469v322.074219c0 5.644531-4.566406 10.203124-10.203125 10.203124h-476.597656c-5.636719 0-10.207031-4.558593-10.207031-10.203124v-322.074219c0-8.445313 6.863281-15.296875 15.308593-15.296875h466.394531c8.453126 0 15.304688 6.851562 15.304688 15.296875zm0 0" fill="#32dfb7"/><path d="m50.527344 49.933594h410.941406v298.710937h-410.941406zm0 0" fill="#21c69c"/><path d="m504.5 65.230469v322.074219c0 5.644531-4.566406 10.203124-10.203125 10.203124h-32.207031c5.636718 0 10.207031-4.558593 10.207031-10.203124v-322.074219c0-8.445313-6.855469-15.296875-15.308594-15.296875h32.207031c8.453126 0 15.304688 6.851562 15.304688 15.296875zm0 0" fill="#21c69c"/><path d="m504.5 336.570312v50.734376c0 5.644531-4.566406 10.203124-10.203125 10.203124h-476.597656c-5.636719 0-10.207031-4.558593-10.207031-10.203124v-50.734376zm0 0" fill="#4e7693"/><path d="m504.5 336.570312v50.734376c0 5.644531-4.566406 10.203124-10.203125 10.203124h-32.207031c5.636718 0 10.207031-4.558593 10.207031-10.203124v-50.734376zm0 0" fill="#38627c"/><path d="m62.601562 17.5625v319.007812h386.792969v-319.007812c0-5.554688-4.503906-10.0625-10.0625-10.0625h-366.667969c-5.558593 0-10.0625 4.507812-10.0625 10.0625zm0 0" fill="#e3f4ff"/><path d="m426.304688 7.5v329.070312h23.09375v-319.007812c0-5.554688-4.507813-10.0625-10.066407-10.0625zm0 0" fill="#bddff4"/><path d="m62.59375 122.496094h386.796875v125.820312h-386.796875zm0 0" fill="#27e6fc"/><path d="m327.453125 229.507812c0 6.671876-1.339844 13.023438-3.773437 18.808594h-89.742188c-2.4375-5.785156-3.773438-12.136718-3.773438-18.808594 0-26.863281 21.777344-48.640624 48.648438-48.640624 26.863281 0 48.640625 21.777343 48.640625 48.640624zm0 0" fill="#fdb659"/><path d="m327.449219 229.507812c0 6.671876-1.332031 13.019532-3.769531 18.8125h-22.8125c2.429687-5.792968 3.769531-12.140624 3.769531-18.8125 0-22.929687-15.878907-42.160156-37.238281-47.289062 3.660156-.882812 7.480468-1.351562 11.410156-1.351562 26.871094 0 48.640625 21.78125 48.640625 48.640624zm0 0" fill="#fede93"/><path d="m280.171875 248.316406h-217.578125v-42.875l40.578125-40.578125c3.929687-3.929687 10.304687-3.929687 14.234375 0l48.277344 48.277344 32.546875-32.539063c3.929687-3.925781 10.300781-3.925781 14.230469.003907zm0 0" fill="#12967e"/><path d="m280.167969 248.320312h-27.832031l-60.910157-60.914062 6.800781-6.800781c3.929688-3.929688 10.300782-3.929688 14.230469 0zm0 0" fill="#21c69c"/><path d="m426.304688 122.496094h23.089843v125.820312h-23.089843zm0 0" fill="#06c7f4"/><path d="m62.597656 17.5625v40.183594h386.800782v-40.183594c0-5.554688-4.507813-10.0625-10.066407-10.0625h-366.667969c-5.558593 0-10.066406 4.507812-10.066406 10.0625zm0 0" fill="#618baa"/><path d="m62.597656 17.5625v40.183594h113.542969v-50.246094h-103.476563c-5.558593 0-10.066406 4.507812-10.066406 10.0625zm0 0" fill="#32dfb7"/><path d="m426.304688 7.5v50.246094h23.09375v-40.183594c0-5.554688-4.507813-10.0625-10.066407-10.0625zm0 0" fill="#4e7693"/><path d="m186.410156 307.675781h-60.382812c-5.558594 0-10.066406-4.507812-10.066406-10.066406v-8.71875c0-5.558594 4.507812-10.066406 10.066406-10.066406h60.382812c5.558594 0 10.066406 4.507812 10.066406 10.066406v8.71875c0 5.558594-4.507812 10.066406-10.066406 10.066406zm0 0" fill="#fdb659"/><path d="m385.96875 307.675781h-60.386719c-5.554687 0-10.0625-4.507812-10.0625-10.066406v-8.71875c0-5.558594 4.507813-10.066406 10.0625-10.066406h60.386719c5.558594 0 10.0625 4.507812 10.0625 10.066406v8.71875c0 5.558594-4.503906 10.066406-10.0625 10.066406zm0 0" fill="#fc3e81"/><path d="m489.195312 42.429688h-32.300781v-24.867188c0-9.683594-7.878906-17.5625-17.5625-17.5625h-366.667969c-9.683593 0-17.5625 7.878906-17.5625 17.5625v24.867188h-32.296874c-12.574219 0-22.804688 10.230468-22.804688 22.808593v322.066407c0 9.761718 7.941406 17.703124 17.703125 17.703124h100.003906c4.144531 0 7.5-3.355468 7.5-7.5 0-4.140624-3.355469-7.5-7.5-7.5h-100.003906c-1.488281 0-2.703125-1.210937-2.703125-2.703124v-43.234376h482v43.234376c0 1.492187-1.214844 2.703124-2.703125 2.703124h-343.925781c-4.144532 0-7.5 3.359376-7.5 7.5 0 4.144532 3.355468 7.5 7.5 7.5h58.804687c-3.015625 15.972657-9 35.902344-20.859375 50.867188-4.214844 5.320312-4.988281 12.4375-2.019531 18.578125 3 6.207031 9.136719 10.0625 16.015625 10.0625h107.371094c6.878906 0 13.015625-3.855469 16.019531-10.0625 2.96875-6.140625 2.191406-13.257813-2.019531-18.578125-11.847656-14.949219-17.835938-34.84375-20.859375-50.867188h191.472656c9.761719 0 17.703125-7.941406 17.703125-17.703124v-181.558594c0-4.140625-3.355469-7.5-7.5-7.5s-7.5 3.359375-7.5 7.5v123.324218h-40.105469v-271.640624h32.300781c4.300782 0 7.804688 3.503906 7.804688 7.804687v41.855469c0 4.140625 3.355469 7.5 7.5 7.5s7.5-3.359375 7.5-7.5v-41.851563c0-12.578125-10.230469-22.808593-22.804688-22.808593zm-177.269531 422.761718c.816407 1.03125.601563 2.054688.273438 2.730469-.230469.476563-.941407 1.59375-2.515625 1.59375h-107.371094c-1.570312 0-2.277344-1.117187-2.511719-1.59375-.324219-.675781-.542969-1.699219.273438-2.730469 14.425781-18.207031 21.175781-42.027344 24.339843-60.183594h63.171876c3.175781 18.21875 9.933593 42 24.339843 60.183594zm129.96875-399.945312v49.746094h-371.792969v-49.746094zm-371.792969 143.296875 38.375-38.375c.996094-.996094 2.625-1 3.625 0l48.277344 48.277343c2.929688 2.929688 7.675782 2.929688 10.605469 0l32.546875-32.535156c.996094-1 2.625-1 3.625 0l54.90625 54.90625h-191.960938zm213.175782 32.273437-36.777344-36.777344c7.765625-9.886718 19.519531-15.671874 32.3125-15.671874 22.683594 0 41.140625 18.457031 41.140625 41.140624 0 3.871094-.535156 7.660157-1.578125 11.308594zm-4.464844-67.449218c-16.855469 0-32.390625 7.351562-42.980469 20l-18.066406-18.066407c-6.847656-6.847656-17.992187-6.847656-24.839844 0l-27.242187 27.234375-42.976563-42.972656c-6.847656-6.851562-17.988281-6.847656-24.839843 0l-27.769532 27.765625v-57.335937h371.796875v110.824218h-108.089843c.753906-3.695312 1.148437-7.472656 1.148437-11.308594 0-30.957031-25.183594-56.140624-56.140625-56.140624zm163.082031-155.804688v32.683594h-258.253906v-35.246094h255.691406c1.414063 0 2.5625 1.152344 2.5625 2.5625zm-369.230469-2.5625h95.976563v35.246094h-98.539063v-32.683594c0-1.410156 1.148438-2.5625 2.5625-2.5625zm-57.664062 50.238281c0-4.304687 3.5-7.804687 7.804688-7.804687h32.296874v271.636718h-40.101562zm55.101562 263.832031v-73.253906h371.792969v73.253906zm0 0"/><path d="m504.5 132.25c-4.144531 0-7.5 3.355469-7.5 7.5v33.335938c0 4.140624 3.355469 7.5 7.5 7.5s7.5-3.359376 7.5-7.5v-33.335938c0-4.144531-3.355469-7.5-7.5-7.5zm0 0"/><path d="m121.265625 195.953125c-2.929687-2.929687-7.675781-2.929687-10.605469 0-2.929687 2.929687-2.929687 7.679687 0 10.605469l15.015625 15.019531c1.464844 1.460937 3.386719 2.195313 5.304688 2.195313s3.839843-.730469 5.304687-2.195313c2.929688-2.929687 2.929688-7.679687 0-10.605469zm0 0"/><path d="m100.863281 94.78125h122.1875c4.144531 0 7.5-3.359375 7.5-7.5 0-4.144531-3.355469-7.5-7.5-7.5h-122.1875c-4.144531 0-7.5 3.355469-7.5 7.5 0 4.140625 3.355469 7.5 7.5 7.5zm0 0"/><path d="m275.714844 94.78125h17.121094c4.140624 0 7.5-3.359375 7.5-7.5 0-4.144531-3.359376-7.5-7.5-7.5h-17.121094c-4.144532 0-7.5 3.355469-7.5 7.5 0 4.140625 3.355468 7.5 7.5 7.5zm0 0"/><path d="m315.148438 94.78125h17.121093c4.140625 0 7.5-3.359375 7.5-7.5 0-4.144531-3.359375-7.5-7.5-7.5h-17.121093c-4.144532 0-7.503907 3.355469-7.503907 7.5 0 4.140625 3.359375 7.5 7.503907 7.5zm0 0"/><path d="m354.578125 94.78125h17.121094c4.144531 0 7.5-3.359375 7.5-7.5 0-4.144531-3.355469-7.5-7.5-7.5h-17.121094c-4.144531 0-7.5 3.355469-7.5 7.5 0 4.140625 3.359375 7.5 7.5 7.5zm0 0"/><path d="m394.011719 94.78125h17.121093c4.140626 0 7.5-3.359375 7.5-7.5 0-4.144531-3.359374-7.5-7.5-7.5h-17.121093c-4.144531 0-7.5 3.355469-7.5 7.5 0 4.140625 3.355469 7.5 7.5 7.5zm0 0"/><path d="m98.722656 40.449219h.046875c4.121094 0 7.472657-3.328125 7.5-7.457031.023438-4.140626-3.316406-7.519532-7.457031-7.542969h-.082031c-.015625 0-.03125 0-.046875 0-4.121094 0-7.433594 3.328125-7.457032 7.457031-.023437 4.140625 3.355469 7.519531 7.496094 7.542969zm0 0"/><path d="m120.179688 40.511719c4.144531 0 7.5-3.359375 7.5-7.5s-3.355469-7.5-7.5-7.5h-.082032c-4.144531 0-7.457031 3.359375-7.457031 7.5s3.394531 7.5 7.539063 7.5zm0 0"/><path d="m141.546875 40.574219h.046875c4.121094 0 7.476562-3.328125 7.5-7.457031.023438-4.140626-3.3125-7.519532-7.457031-7.542969h-.082031c-.015626 0-.03125 0-.046876 0-4.121093 0-7.433593 3.328125-7.457031 7.457031-.023437 4.140625 3.355469 7.519531 7.496094 7.542969zm0 0"/><path d="m265.054688 374.539062c4.144531 0 7.5-3.359374 7.5-7.5 0-4.144531-3.355469-7.5-7.5-7.5h-18.113282c-4.144531 0-7.5 3.355469-7.5 7.5 0 4.140626 3.355469 7.5 7.5 7.5zm0 0"/><path d="m186.410156 271.324219h-60.382812c-9.6875 0-17.566406 7.878906-17.566406 17.566406v8.71875c0 9.6875 7.878906 17.566406 17.566406 17.566406h60.382812c9.6875 0 17.5625-7.878906 17.5625-17.566406v-8.71875c.003906-9.6875-7.875-17.566406-17.5625-17.566406zm2.566406 26.285156c0 1.414063-1.152343 2.566406-2.5625 2.566406h-60.386718c-1.414063 0-2.5625-1.152343-2.5625-2.566406v-8.71875c0-1.414063 1.148437-2.566406 2.5625-2.566406h60.386718c1.410157 0 2.5625 1.152343 2.5625 2.566406zm0 0"/><path d="m385.96875 271.324219h-60.386719c-9.683593 0-17.5625 7.878906-17.5625 17.566406v8.71875c0 9.6875 7.878907 17.566406 17.5625 17.566406h60.386719c9.6875 0 17.5625-7.878906 17.5625-17.566406v-8.71875c0-9.6875-7.878906-17.566406-17.5625-17.566406zm2.5625 26.285156c0 1.414063-1.148438 2.566406-2.5625 2.566406h-60.386719c-1.410156 0-2.5625-1.152343-2.5625-2.566406v-8.71875c0-1.414063 1.152344-2.566406 2.5625-2.566406h60.386719c1.414062 0 2.5625 1.152343 2.5625 2.566406zm0 0"/><path d="m255.996094 266.628906c-4.140625 0-7.5 3.355469-7.5 7.5v36.230469c0 4.140625 3.359375 7.5 7.5 7.5 4.144531 0 7.5-3.359375 7.5-7.5v-36.230469c0-4.144531-3.355469-7.5-7.5-7.5zm0 0"/><path d="m348.925781 174.949219h56.554688c4.140625 0 7.5-3.359375 7.5-7.5 0-4.144531-3.359375-7.5-7.5-7.5h-56.554688c-4.144531 0-7.5 3.355469-7.5 7.5 0 4.140625 3.355469 7.5 7.5 7.5zm0 0"/><path d="m405.480469 184.773438h-11.46875c-4.144531 0-7.5 3.355468-7.5 7.5 0 4.140624 3.355469 7.5 7.5 7.5h11.46875c4.140625 0 7.5-3.359376 7.5-7.5 0-4.144532-3.359375-7.5-7.5-7.5zm0 0"/><path d="m405.480469 201.546875h-11.46875c-4.144531 0-7.5 3.359375-7.5 7.5s3.355469 7.5 7.5 7.5h11.46875c4.140625 0 7.5-3.359375 7.5-7.5s-3.359375-7.5-7.5-7.5zm0 0"/></svg>